<?xml version="1.0" encoding="UTF-8" standalone="no"?>
<!-- Created with Inkscape (http://www.inkscape.org/) -->

<svg
   width="32"
   height="32"
   viewBox="0 0 8.4666665 8.4666667"
   version="1.1"
   id="svg5"
   inkscape:version="1.2.2 (b0a8486541, 2022-12-01)"
   sodipodi:docname="favicon.svg"
   inkscape:export-filename="favicon.png"
   inkscape:export-xdpi="96"
   inkscape:export-ydpi="96"
   xmlns:inkscape="http://www.inkscape.org/namespaces/inkscape"
   xmlns:sodipodi="http://sodipodi.sourceforge.net/DTD/sodipodi-0.dtd"
   xmlns="http://www.w3.org/2000/svg"
   xmlns:svg="http://www.w3.org/2000/svg">
  <sodipodi:namedview
     id="namedview7"
     pagecolor="#ffffff"
     bordercolor="#999999"
     borderopacity="1"
     inkscape:showpageshadow="2"
     inkscape:pageopacity="0"
     inkscape:pagecheckerboard="0"
     inkscape:deskcolor="#d1d1d1"
     inkscape:document-units="px"
     showgrid="false"
     inkscape:zoom="7.9118979"
     inkscape:cx="9.6057862"
     inkscape:cy="27.616635"
     inkscape:window-width="1920"
     inkscape:window-height="1011"
     inkscape:window-x="0"
     inkscape:window-y="0"
     inkscape:window-maximized="1"
     inkscape:current-layer="layer1" />
  <defs
     id="defs2">
    <clipPath
       clipPathUnits="userSpaceOnUse"
       id="clipPath1161">
      <rect
         style="fill:#171717;fill-opacity:1;stroke-width:6.00001;stroke-linejoin:round;paint-order:fill markers stroke;stop-color:#000000"
         id="rect1163"
         width="8.4666662"
         height="8.4666662"
         x="0"
         y="0"
         ry="0.79374999" />
    </clipPath>
  </defs>
  <g
     inkscape:label="Layer 1"
     inkscape:groupmode="layer"
     id="layer1">
    <rect
       style="fill:#171717;fill-opacity:1;stroke-width:6.00001;stroke-linejoin:round;paint-order:fill markers stroke;stop-color:#000000"
       id="rect263"
       width="8.4666662"
       height="8.4666662"
       x="0"
       y="0"
       ry="1.5875"
       rx="1.5875" />
    <path
       id="path469"
       style="fill:#ffffff;stroke-width:0.0444149;stroke-linejoin:round;stroke-dasharray:0.133245, 0.133245;paint-order:fill markers stroke;stop-color:#000000"
       d="m 7.0713309,1.0672073 c -0.042768,0.00167 -0.078086,0.019107 -0.090503,0.044692 -0.032774,0.067525 0.00531,2.2257551 0.052445,2.9717265 0.04152,0.6571895 0.041435,0.6735662 -0.00342,0.6998776 C 6.9774764,4.8142173 6.8412257,4.823775 6.801653,4.7995258 6.7510617,4.7685304 6.7220499,4.6897053 6.6503144,4.3883037 6.5316048,3.8895459 6.269059,2.6576888 6.1407372,1.9973016 6.0746273,1.6570648 6.0068909,1.3527609 5.9901829,1.3210718 c -0.01981,-0.037573 -0.049819,-0.056858 -0.086232,-0.055438 -0.1081074,0.00422 -0.1083951,0.047344 -0.00411,0.6273201 0.1172836,0.6522037 0.4083059,2.0724378 0.528833,2.5808061 0.082049,0.3460742 0.084406,0.3663176 0.046117,0.3966752 -0.051449,0.040794 -0.1826672,0.04653 -0.213986,0.00937 C 6.1947644,4.8014108 5.144641,2.6543228 4.8695144,2.0351362 4.7408114,1.7454834 4.706381,1.6954986 4.6438446,1.7073443 c -0.079519,0.015063 -0.1002102,0.077207 -0.064316,0.1931101 0.047737,0.1541379 0.5409431,1.1963564 1.0186518,2.1525643 0.2345544,0.4694963 0.4293061,0.8846554 0.4328122,0.9225689 0.00568,0.061485 -0.00578,0.074602 -0.106206,0.1214261 L 5.8121708,5.1495051 5.7035602,5.0385266 C 5.5776247,4.9098819 5.0129116,4.2390978 4.7907134,3.95419 4.7070845,3.8469591 4.4648631,3.5177074 4.2524298,3.2225238 3.6280311,2.3548978 3.5911906,2.3084532 3.5292495,2.3108696 c -0.049832,0.00194 -0.1010684,0.062353 -0.098949,0.1166865 9.95e-4,0.025512 0.6737101,0.9873055 0.9143789,1.3073107 0.2147445,0.2855359 0.5420979,0.6873651 0.8852318,1.0865633 0.380574,0.442753 0.3737519,0.4322223 0.3213991,0.4948119 C 5.5032378,5.3737163 5.4005605,5.4366946 5.3518836,5.4385934 5.3338515,5.4393038 5.1223253,5.2808454 4.8818352,5.0864776 4.2702411,4.5921799 3.3223922,3.8159628 2.9187588,3.4788434 2.5858513,3.200796 2.5151934,3.1625485 2.4548567,3.2277844 2.3998383,3.2872692 2.436369,3.3407733 2.6794606,3.5565367 2.9905594,3.8326593 4.605567,5.1598847 4.904938,5.3854666 5.1439269,5.5655506 5.1819861,5.6230467 5.1250861,5.7177464 5.0488415,5.8446399 5.0158732,5.8335416 4.451408,5.4909494 2.3762683,4.2314727 1.9776826,3.9943332 1.9382845,3.9958699 c -0.051732,0.00202 -0.096106,0.078565 -0.074592,0.1286915 0.022653,0.052783 0.4571992,0.3259836 2.0114338,1.2645134 0.4968195,0.3000044 0.9242548,0.5644041 0.9498344,0.587578 0.044017,0.039884 0.044519,0.045445 0.00938,0.1039154 -0.020413,0.033975 -0.055853,0.062498 -0.078747,0.06339 C 4.6825096,6.14681 3.5430794,5.8685503 3.148354,5.7514494 2.6970972,5.6175792 2.2220439,5.4683813 1.7791353,5.3214948 1.6022052,5.2628165 1.4410846,5.2153262 1.4210564,5.2159293 c -0.097401,0.00292 -0.1207999,0.1465632 -0.032281,0.1982009 0.1415167,0.082553 2.1478652,0.6985816 2.8634551,0.8791977 0.2086046,0.052651 0.3858167,0.099309 0.39379,0.1036657 0.00797,0.00435 0.00374,0.058956 -0.00946,0.1213273 C 4.615156,6.6195414 4.6049797,6.6327865 4.5418252,6.641642 4.5029071,6.6470949 3.9559138,6.5707002 3.3263113,6.4718601 2.6967094,6.3730199 1.966068,6.2617053 1.7026398,6.2245158 1.2391261,6.1590802 1.2222185,6.1583481 1.1783937,6.2012335 1.0759246,6.3015046 1.1486698,6.3733095 1.387476,6.4076591 2.6572389,6.5902996 4.3021853,6.8621334 4.404726,6.9062694 4.483547,6.9402014 4.488413,6.9485174 4.48767,7.0482001 4.486,7.2704072 4.503585,7.2585689 4.1771978,7.257391 3.588665,7.255271 1.3207959,7.218971 1.2346182,7.210297 1.1854796,7.205357 1.1249263,7.213227 1.1000573,7.227811 c -0.054374,0.031888 -0.055927,0.12504 -0.00276,0.1657647 0.027578,0.021128 0.3980904,0.036355 1.3369476,0.054926 0.7143367,0.014132 1.6061086,0.035498 1.981733,0.04746 0.3756209,0.011966 0.9738025,0.016142 1.3292874,0.00929 1.7902417,-0.034514 5.7365257,-0.096373 6.4642657,-0.1013181 1.033103,-0.00702 1.097633,-0.010863 1.134213,-0.067677 0.03648,-0.056666 0.02221,-0.1309468 -0.02843,-0.148147 -0.01877,-0.00638 -0.781793,9.593e-4 -1.695617,0.016305 -0.913827,0.015346 -1.6666789,0.023131 -1.6729777,0.017305 -0.025227,-0.023309 -0.055612,-0.3016442 -0.038514,-0.3525029 0.012004,-0.035721 0.049376,-0.064014 0.1089617,-0.082577 0.09175,-0.028585 0.719076,-0.1316301 2.271328,-0.3730627 0.524239,-0.081541 0.873218,-0.1460888 0.9049,-0.1673769 0.05954,-0.040003 0.06512,-0.1315738 0.01052,-0.173372 -0.02481,-0.019012 -0.07256,-0.021724 -0.147331,-0.00835 -0.06084,0.010876 -0.715633,0.1120611 -1.455078,0.2248099 C 10.862095,6.4020264 10.170879,6.5096483 10.065481,6.5284571 9.8187479,6.5724875 9.7703632,6.549278 9.721066,6.3633277 9.6690285,6.1670473 9.6197457,6.2009545 10.45344,5.8597011 11.279499,5.5215762 11.94449,5.2656501 12.494965,5.0740671 12.769372,4.9785651 13.00668,4.889149 13.02231,4.875343 13.071071,4.8322801 13.051957,4.7398525 12.98896,4.7140652 12.874769,4.667322 11.800114,5.0576255 10.205489,5.7249879 9.5425366,6.0024392 9.5391948,6.0031445 9.4727483,5.8800893 9.4447117,5.8281664 9.4440428,5.8110214 9.4687687,5.77803 9.4851152,5.7562178 9.8176463,5.5095157 10.207764,5.2298135 c 1.830239,-1.312223 2.168015,-1.5591134 2.207805,-1.6139704 0.03251,-0.044825 0.03661,-0.069343 0.01718,-0.1024704 -0.04234,-0.072196 -0.108469,-0.047799 -0.353062,0.130183 C 11.951164,3.737073 11.614208,3.9762761 11.330895,4.1751094 11.047587,4.3739444 10.486387,4.7737083 10.083764,5.063483 9.6811424,5.3532577 9.3272137,5.5975249 9.2972851,5.6062933 9.2285432,5.6264257 9.1179891,5.5544593 9.1041219,5.480559 c -0.00822,-0.04379 0.2221059,-0.3037139 1.2672561,-1.4300435 0.718154,-0.7739306 1.276591,-1.3944998 1.275689,-1.4176481 -8.89e-4,-0.022645 -0.01477,-0.053361 -0.03087,-0.068256 -0.08674,-0.080224 -0.113143,-0.054876 -1.434404,1.377717 L 8.8902718,5.342677 8.8155848,5.299377 C 8.7358996,5.2531731 8.6984729,5.186118 8.7248492,5.1367099 8.7922382,5.0104685 9.6061148,3.7540323 9.8855604,3.3448257 10.493249,2.454955 10.820193,1.9457843 10.818277,1.8920921 10.815612,1.8168964 10.731677,1.7816942 10.666211,1.8283341 10.613222,1.8660857 9.7170856,3.197743 9.2329012,3.9582603 8.6014014,4.9501689 8.5184608,5.0781284 8.4976417,5.0921458 8.4570794,5.1194556 8.2826734,5.0209806 8.2806703,4.9696378 8.2796399,4.9432926 8.4678811,4.4757958 8.698981,3.9307621 8.9300801,3.3857258 9.1827746,2.7864373 9.2604972,2.5989962 9.3382189,2.4115535 9.484639,2.0672486 9.5858944,1.8338657 9.7734935,1.4014718 9.7912089,1.3159888 9.6995834,1.2848693 9.6311764,1.261635 9.5750146,1.3213447 9.5006959,1.4963679 9.4603405,1.5914053 9.2556364,2.0727714 9.0457793,2.5660728 8.6681802,3.4536859 8.4971701,3.8667442 8.2192995,4.5623011 8.0887177,4.889173 8.0711703,4.9203193 8.0197751,4.9164659 7.9292236,4.9096793 7.8761202,4.8492554 7.8721886,4.7484815 7.8702521,4.6987474 7.8941544,4.5115676 7.9252849,4.3325452 7.9564135,4.1535262 8.0216671,3.7779489 8.0703246,3.497917 8.3308014,1.998808 8.4652677,1.1245958 8.4432592,1.0733143 8.4123465,1.0012866 8.2850691,1.0103848 8.2591433,1.086469 8.2514949,1.1089137 8.2113537,1.3455564 8.169911,1.6123689 8.1012099,2.0546778 7.9502639,2.9503031 7.7258501,4.2474372 7.6789941,4.5182689 7.6276238,4.7569203 7.611662,4.7777562 7.5775264,4.8223124 7.3638771,4.8204062 7.3334973,4.7752868 7.2954399,4.7187626 7.2246496,3.232582 7.2117222,2.2190271 7.1971434,1.0760092 7.195477,1.0623643 7.0713273,1.0672076 Z m -0.010306,3.990301 c 0.3982156,-0.017269 0.5024016,-0.00503 0.9097249,0.1070122 0.2889904,0.079496 0.452648,0.1541278 0.6705122,0.3057978 0.4758024,0.331237 0.7467914,0.6435852 0.8821903,1.016853 0.050754,0.1399169 0.1234911,0.4684152 0.1394115,0.6296229 l 0.011548,0.1171543 -0.77493,0.032205 C 8.4732687,7.2838561 7.598318,7.3054658 6.9551458,7.3142119 5.6574037,7.3318589 4.8101902,7.3284558 4.769484,7.3054444 4.72168,7.2784162 4.7534004,6.9843092 4.8342196,6.7050678 4.9273054,6.3834406 5.0595455,6.1504716 5.3028809,5.87936 5.598426,5.5500765 6.0274852,5.2796418 6.4715016,5.142801 6.6658437,5.0829075 6.7474579,5.0711117 7.0610178,5.0575101 Z"
       clip-path="url(#clipPath1161)" />
  </g>
</svg>
